<?xml version="1.0" encoding="utf-8"?>
<svg xmlns="http://www.w3.org/2000/svg" height="512pt" version="1.1" viewBox="0 0 512 512" width="512pt">
<path d="M 0.00 0.00 L 512.00 0.00 L 512.00 156.30 C 509.67 155.76 507.32 155.57 505.00 156.22 C 500.34 156.22 495.69 156.24 491.04 156.21 C 488.74 155.61 486.33 155.61 484.05 156.21 C 469.03 156.26 454.01 156.23 438.99 156.23 C 431.72 155.35 424.33 155.94 417.01 155.82 C 411.71 157.23 406.30 154.78 401.01 156.20 C 396.33 156.17 391.60 156.54 386.98 155.78 C 381.72 157.05 376.25 155.52 371.05 156.24 C 360.72 156.00 350.31 156.77 340.04 155.75 C 338.55 155.73 336.81 155.81 335.67 156.87 C 336.11 161.34 334.85 166.27 336.29 170.46 C 390.01 170.55 443.74 170.35 497.46 170.54 C 497.63 278.16 497.47 385.78 497.54 493.40 C 480.39 493.97 463.18 493.57 446.01 493.69 C 355.83 493.61 265.65 493.78 175.48 493.61 C 175.25 443.01 175.67 392.32 175.30 341.77 C 170.69 341.39 166.05 341.66 161.44 341.63 C 161.06 397.22 161.26 452.84 161.34 508.44 C 277.79 508.35 394.25 508.27 510.70 508.47 C 510.74 507.01 509.98 505.63 511.94 504.83 C 511.79 488.50 511.86 472.15 512.00 455.82 L 512.00 512.00 L 0.00 512.00 L 0.00 326.65 C 107.14 326.35 214.29 326.70 321.43 326.48 C 321.66 228.66 321.47 130.84 321.54 33.02 C 321.47 23.48 321.65 13.93 321.45 4.40 C 321.17 4.20 320.62 3.80 320.34 3.61 C 213.56 3.91 106.78 3.47 0.00 3.81 L 0.00 0.00 Z" fill="transparent" opacity="1.00" stroke="transparent" stroke-width="0.25"/>
<path d="M 0.00 3.81 C 106.78 3.47 213.56 3.91 320.34 3.61 C 320.62 3.80 321.17 4.20 321.45 4.40 C 321.65 13.93 321.47 23.48 321.54 33.02 C 321.47 130.84 321.66 228.66 321.43 326.48 C 214.29 326.70 107.14 326.35 0.00 326.65 L 0.00 3.81 Z" fill="#f7ad2e" opacity="1.00" stroke="#f7ad2e" stroke-width="0.25"/>
<path d="M 73.26 52.50 C 74.72 51.70 76.35 51.54 77.98 51.68 C 134.74 51.63 191.50 51.82 248.25 51.58 C 250.38 55.35 248.77 59.97 249.32 64.14 C 246.86 69.35 242.15 73.17 238.72 77.79 C 205.92 116.55 173.24 155.41 140.38 194.13 C 124.14 212.94 108.35 232.16 92.14 250.99 C 90.31 252.92 89.15 255.67 86.67 256.86 C 86.39 257.73 86.30 258.62 86.41 259.52 C 143.80 259.25 201.22 259.46 258.62 259.42 C 258.81 259.74 259.21 260.38 259.41 260.71 C 259.01 264.71 259.90 268.85 258.52 272.70 C 257.04 272.78 255.36 272.30 254.10 273.31 C 244.38 273.23 234.67 273.31 224.96 273.28 L 223.97 272.58 C 221.84 273.67 219.15 273.65 217.02 272.58 C 213.16 274.81 208.80 271.65 205.03 273.28 C 197.36 273.28 189.69 273.29 182.02 273.26 L 181.06 272.63 C 177.52 273.69 173.44 273.54 169.95 272.67 C 169.50 272.83 168.60 273.16 168.15 273.32 C 159.09 273.22 150.03 273.34 140.98 273.29 C 139.55 272.25 137.63 272.66 136.13 273.32 C 133.38 273.23 130.63 273.25 127.87 273.31 C 126.30 272.60 124.59 272.42 123.04 273.30 C 120.67 273.26 118.29 273.25 115.91 273.32 C 114.37 272.53 112.56 272.40 111.04 273.31 C 95.64 273.31 80.24 273.24 64.84 273.37 C 64.56 273.03 64.01 272.35 63.74 272.01 C 63.59 267.63 63.70 263.24 63.64 258.85 C 70.79 249.44 79.05 240.74 86.43 231.45 C 94.24 221.92 102.22 212.50 110.03 202.99 C 112.03 200.72 114.19 198.45 115.68 195.81 C 115.93 196.01 116.43 196.43 116.68 196.63 C 117.31 195.57 117.05 194.16 118.20 193.37 C 136.14 171.37 154.84 150.02 172.97 128.18 C 188.71 109.56 204.46 90.97 220.05 72.25 C 221.52 69.87 224.58 68.40 224.81 65.38 C 174.39 65.40 123.96 65.39 73.54 65.39 C 72.97 61.12 73.56 56.79 73.26 52.50 Z" fill="#ffffff" opacity="1.00" stroke="#ffffff" stroke-width="0.25"/>
<path d="M 335.67 156.87 C 336.81 155.81 338.55 155.73 340.04 155.75 C 350.31 156.77 360.72 156.00 371.05 156.24 C 376.25 155.52 381.72 157.05 386.98 155.78 C 391.60 156.54 396.33 156.17 401.01 156.20 C 406.30 154.78 411.71 157.23 417.01 155.82 C 424.33 155.94 431.72 155.35 438.99 156.23 C 454.01 156.23 469.03 156.26 484.05 156.21 C 486.33 155.61 488.74 155.61 491.04 156.21 C 495.69 156.24 500.34 156.22 505.00 156.22 C 507.32 155.57 509.67 155.76 512.00 156.30 L 512.00 455.82 C 511.86 472.15 511.79 488.50 511.94 504.83 C 509.98 505.63 510.74 507.01 510.70 508.47 C 394.25 508.27 277.79 508.35 161.34 508.44 C 161.26 452.84 161.06 397.22 161.44 341.63 C 166.05 341.66 170.69 341.39 175.30 341.77 C 175.67 392.32 175.25 443.01 175.48 493.61 C 265.65 493.78 355.83 493.61 446.01 493.69 C 463.18 493.57 480.39 493.97 497.54 493.40 C 497.47 385.78 497.63 278.16 497.46 170.54 C 443.74 170.35 390.01 170.55 336.29 170.46 C 334.85 166.27 336.11 161.34 335.67 156.87 Z" fill="#f7ad2e" opacity="1.00" stroke="#f7ad2e" stroke-width="0.25"/>
<path d="M 389.59 351.65 C 392.21 351.57 394.83 351.60 397.45 351.59 C 398.80 353.89 397.89 356.50 398.23 359.03 C 397.97 362.02 398.74 365.14 397.67 368.02 C 398.47 370.26 398.23 372.66 398.13 375.00 C 396.75 377.29 399.06 379.66 397.77 381.91 C 397.64 407.67 397.86 433.43 397.64 459.18 C 403.84 461.72 410.74 459.12 417.04 460.24 C 420.65 459.89 424.56 460.92 427.98 459.66 C 432.83 460.92 438.03 459.86 443.02 460.29 C 444.32 459.63 445.62 459.63 446.94 460.27 C 449.32 460.20 451.70 460.25 454.10 460.26 C 457.22 458.86 460.38 460.79 463.61 460.33 C 463.46 462.68 463.48 465.02 463.46 467.38 C 438.83 467.48 414.19 467.34 389.56 467.44 C 389.41 428.85 389.31 390.24 389.59 351.65 Z" fill="#f7ad2e" opacity="1.00" stroke="#f7ad2e" stroke-width="0.25"/>
<path d="M 218.49 352.47 C 220.89 351.27 223.66 351.68 226.22 351.95 C 226.59 368.82 226.22 385.74 226.50 402.63 C 226.80 402.82 227.39 403.21 227.68 403.40 C 250.19 403.27 272.72 403.25 295.23 403.41 C 296.87 401.62 296.19 399.18 296.30 397.01 C 296.43 381.88 296.06 366.71 296.59 351.62 C 298.90 351.67 301.22 351.76 303.53 351.59 C 303.68 389.93 303.52 428.28 303.66 466.63 C 301.27 466.60 298.88 466.64 296.50 466.66 C 296.19 447.69 296.19 428.70 296.35 409.72 C 296.00 409.65 295.29 409.50 294.94 409.42 C 272.10 409.44 249.25 409.47 226.41 409.58 C 226.38 428.47 226.26 447.38 226.45 466.27 C 225.89 466.56 224.77 467.13 224.21 467.42 C 222.23 467.29 220.26 467.56 218.54 466.34 C 218.42 428.38 218.58 390.42 218.49 352.47 Z" fill="#f7ad2e" opacity="1.00" stroke="#f7ad2e" stroke-width="0.25"/>
<path d="M 326.31 424.16 L 326.93 423.69 C 339.28 423.67 351.64 423.72 364.00 423.74 C 365.55 423.83 367.25 423.27 368.59 424.38 C 368.54 426.45 368.57 428.52 368.60 430.60 C 354.51 430.67 340.41 430.56 326.31 430.65 C 326.29 428.48 326.19 426.32 326.31 424.16 Z" fill="#f7ad2e" opacity="1.00" stroke="#f7ad2e" stroke-width="0.25"/>
</svg>